<svg width="136" height="136" xmlns="http://www.w3.org/2000/svg" xmlns:xlink="http://www.w3.org/1999/xlink" overflow="hidden"><defs><clipPath id="clip0"><rect x="266" y="148" width="136" height="136"/></clipPath></defs><g clip-path="url(#clip0)" transform="translate(-266 -148)"><path d="M318.434 230.161C316.96 230.161 315.766 231.354 315.766 232.829 315.766 234.304 316.96 235.497 318.434 235.497L348.996 235.497C350.471 235.497 351.664 234.299 351.664 232.829 351.664 231.354 350.471 230.161 348.996 230.161ZM333.718 194.065C331.967 194.065 330.545 195.486 330.545 197.237 330.545 198.343 331.108 199.313 331.967 199.881L323.745 213.51 316.096 209.038C316.193 208.732 316.251 208.403 316.251 208.063 316.251 206.312 314.83 204.891 313.079 204.891 311.324 204.891 309.902 206.312 309.902 208.063 309.902 209.814 311.323 211.235 313.074 211.235 313.118 211.235 313.157 211.235 313.201 211.23L317.43 226.538 333.717 226.538 350 226.538 354.23 211.23C354.273 211.23 354.312 211.235 354.356 211.235 356.107 211.235 357.528 209.814 357.528 208.063 357.528 206.312 356.107 204.891 354.356 204.891 352.605 204.891 351.184 206.312 351.184 208.063 351.184 208.403 351.237 208.732 351.339 209.038L343.69 213.51 335.469 199.881C336.322 199.313 336.89 198.338 336.89 197.237 336.89 195.486 335.469 194.065 333.718 194.065ZM333.5 179C354.211 179 371 195.789 371 216.5 371 237.211 354.211 254 333.5 254 312.789 254 296 237.211 296 216.5 296 195.789 312.789 179 333.5 179Z" fill="#FFC000" fill-rule="evenodd"/></g></svg>