<svg width="117" height="117" xmlns="http://www.w3.org/2000/svg" xmlns:xlink="http://www.w3.org/1999/xlink" overflow="hidden"><defs><clipPath id="clip0"><rect x="284" y="375" width="117" height="117"/></clipPath></defs><g clip-path="url(#clip0)" transform="translate(-284 -375)"><path d="M343.5 418.879C351.023 418.879 357.121 424.977 357.121 432.5 357.121 440.023 351.023 446.121 343.5 446.121 335.977 446.121 329.879 440.023 329.879 432.5 329.879 424.977 335.977 418.879 343.5 418.879ZM343.5 411.516C331.911 411.516 322.516 420.911 322.516 432.5 322.516 444.089 331.911 453.484 343.5 453.484 355.089 453.484 364.484 444.089 364.484 432.5 364.484 420.911 355.089 411.516 343.5 411.516ZM365.313 405.784C362.604 405.784 360.409 407.979 360.409 410.687 360.409 413.396 362.604 415.591 365.313 415.591 368.021 415.591 370.216 413.396 370.216 410.687 370.216 407.979 368.021 405.784 365.313 405.784ZM343.5 399C354.411 399 355.703 399.042 360.012 399.238 363.996 399.42 366.16 400.086 367.6 400.645 369.507 401.386 370.868 402.272 372.298 403.702 373.728 405.132 374.614 406.493 375.355 408.4 375.914 409.84 376.58 412.004 376.762 415.988 376.958 420.297 377 421.589 377 432.5 377 443.411 376.958 444.703 376.762 449.012 376.58 452.996 375.914 455.16 375.355 456.6 374.614 458.507 373.728 459.868 372.298 461.298 370.868 462.728 369.507 463.614 367.6 464.355 366.16 464.914 363.996 465.58 360.012 465.762 355.704 465.958 354.412 466 343.5 466 332.588 466 331.296 465.958 326.988 465.762 323.004 465.58 320.84 464.914 319.4 464.355 317.493 463.614 316.132 462.728 314.702 461.298 313.272 459.868 312.386 458.507 311.645 456.6 311.086 455.16 310.42 452.996 310.238 449.012 310.042 444.703 310 443.411 310 432.5 310 421.589 310.042 420.297 310.238 415.988 310.42 412.004 311.086 409.84 311.645 408.4 312.386 406.493 313.272 405.132 314.702 403.702 316.132 402.272 317.493 401.386 319.4 400.645 320.84 400.086 323.004 399.42 326.988 399.238 331.297 399.042 332.589 399 343.5 399Z" fill="#66AFBE" fill-rule="evenodd"/></g></svg>