<svg width="420" height="28" xmlns="http://www.w3.org/2000/svg" xmlns:xlink="http://www.w3.org/1999/xlink" overflow="hidden"><defs><clipPath id="clip0"><rect x="387" y="624" width="420" height="28"/></clipPath></defs><g clip-path="url(#clip0)" transform="translate(-387 -624)"><path d="M691.987 634.665 689.108 642.513 694.82 642.513ZM643.112 633.026 643.112 638.416 645.413 638.416C645.924 638.416 646.414 638.371 646.884 638.282 647.353 638.193 647.776 638.04 648.151 637.825 648.527 637.61 648.822 637.326 649.036 636.974 649.25 636.622 649.357 636.178 649.357 635.642 649.357 635.096 649.25 634.652 649.036 634.311 648.822 633.969 648.532 633.701 648.167 633.507 647.802 633.313 647.39 633.184 646.931 633.121 646.472 633.058 645.997 633.026 645.507 633.026ZM788.689 628.567 807 628.567 807 633.279 800.583 633.279 800.583 651.417 795.106 651.417 795.106 633.279 788.689 633.279ZM753.821 628.567 759.33 628.567 759.33 651.417 753.821 651.417ZM732.787 628.567 738.296 628.567 738.296 646.61 747.076 646.61 747.076 651.417 732.787 651.417ZM704.758 628.567 711.393 628.567 716.229 637.029 721.065 628.567 727.482 628.567 718.765 641.741 718.765 651.417 713.287 651.417 713.287 641.741ZM689.437 628.567 694.757 628.567 704.179 651.417 698.091 651.417 696.323 646.926 687.543 646.926 685.868 651.417 679.906 651.417ZM661.673 628.567 667.182 628.567 667.182 646.61 675.962 646.61 675.962 651.417 661.673 651.417ZM637.635 628.567 645.96 628.567C647.202 628.567 648.363 628.69 649.443 628.937 650.522 629.184 651.461 629.583 652.26 630.135 653.058 630.686 653.686 631.408 654.145 632.301 654.605 633.194 654.834 634.292 654.834 635.595 654.834 636.929 654.589 638.056 654.099 638.975 653.608 639.895 652.946 640.633 652.111 641.189 651.276 641.746 650.314 642.153 649.224 642.411 648.133 642.668 647.004 642.797 645.835 642.797L643.112 642.797 643.112 651.417 637.635 651.417ZM598.588 628.567 605.223 628.567 610.059 637.029 614.895 628.567 621.312 628.567 612.594 641.741 612.594 651.417 607.117 651.417 607.117 641.741ZM566.521 628.567 574.299 628.567 579.463 643.222 579.588 643.222 584.518 628.567 592.437 628.567 592.437 651.417 587.085 651.417 587.226 635.248 587.116 635.248 581.232 651.417 577.382 651.417 571.638 635.248 571.544 635.248 571.669 651.417 566.521 651.417ZM775.888 627.984C777.161 627.984 778.465 628.22 779.8 628.693 781.136 629.165 782.309 629.864 783.321 630.789L779.816 634.508C779.346 633.909 778.733 633.431 777.977 633.074 777.22 632.716 776.488 632.538 775.778 632.538 775.423 632.538 775.058 632.569 774.682 632.632 774.307 632.695 773.971 632.819 773.673 633.003 773.376 633.187 773.125 633.423 772.922 633.712 772.718 634.001 772.617 634.371 772.617 634.823 772.617 635.212 772.695 635.535 772.851 635.792 773.008 636.049 773.243 636.275 773.556 636.47 773.869 636.664 774.239 636.843 774.667 637.005 775.095 637.168 775.575 637.334 776.107 637.502 776.879 637.764 777.68 638.051 778.509 638.361 779.339 638.671 780.095 639.086 780.778 639.606 781.462 640.126 782.028 640.767 782.476 641.528 782.925 642.29 783.149 643.243 783.149 644.388 783.149 645.691 782.909 646.823 782.429 647.784 781.949 648.746 781.305 649.539 780.497 650.164 779.688 650.789 778.759 651.251 777.711 651.551 776.662 651.85 775.58 652 774.464 652 772.846 652 771.279 651.714 769.761 651.141 768.243 650.569 766.983 649.757 765.981 648.706L769.565 645.019C770.118 645.712 770.848 646.29 771.756 646.752 772.664 647.215 773.566 647.446 774.464 647.446 774.87 647.446 775.267 647.404 775.653 647.32 776.039 647.236 776.375 647.096 776.662 646.902 776.949 646.708 777.179 646.448 777.351 646.122 777.523 645.796 777.609 645.408 777.609 644.956 777.609 644.525 777.502 644.16 777.288 643.861 777.074 643.561 776.769 643.288 776.373 643.041 775.976 642.794 775.486 642.568 774.902 642.363 774.317 642.159 773.65 641.941 772.898 641.709 772.168 641.468 771.456 641.187 770.762 640.866 770.068 640.546 769.45 640.131 768.908 639.621 768.365 639.112 767.927 638.497 767.593 637.778 767.259 637.058 767.092 636.183 767.092 635.154 767.092 633.883 767.35 632.795 767.867 631.892 768.383 630.988 769.056 630.245 769.886 629.662 770.715 629.079 771.654 628.653 772.703 628.385 773.751 628.117 774.813 627.984 775.888 627.984ZM387 625 503.036 625 503.036 640.33 387 640.33Z" fill="#333F50" fill-rule="evenodd"/></g></svg>