<svg width="426" height="28" xmlns="http://www.w3.org/2000/svg" xmlns:xlink="http://www.w3.org/1999/xlink" overflow="hidden"><defs><clipPath id="clip0"><rect x="414" y="202" width="426" height="28"/></clipPath></defs><g clip-path="url(#clip0)" transform="translate(-414 -202)"><path d="M721.943 211.775 718.978 219.573 724.86 219.573ZM672.022 210.146 672.022 215.502 674.391 215.502C674.917 215.502 675.422 215.457 675.905 215.369 676.389 215.28 676.824 215.129 677.211 214.915 677.597 214.701 677.901 214.419 678.121 214.069 678.341 213.719 678.452 213.278 678.452 212.746 678.452 212.203 678.341 211.762 678.121 211.423 677.901 211.083 677.603 210.817 677.227 210.624 676.851 210.431 676.427 210.303 675.954 210.24 675.481 210.178 674.992 210.146 674.487 210.146ZM820.145 205.715 839 205.715 839 210.397 832.393 210.397 832.393 228.421 826.752 228.421 826.752 210.397 820.145 210.397ZM785.396 205.715 791.069 205.715 791.069 228.421 785.396 228.421ZM764.394 205.715 770.066 205.715 770.066 223.645 779.107 223.645 779.107 228.421 764.394 228.421ZM735.312 205.715 742.145 205.715 747.125 214.124 752.105 205.715 758.712 205.715 749.736 218.806 749.736 228.421 744.095 228.421 744.095 218.806ZM719.317 205.715 724.796 205.715 734.497 228.421 728.229 228.421 726.407 223.958 717.367 223.958 715.642 228.421 709.502 228.421ZM691.384 205.715 697.057 205.715 697.057 223.645 706.098 223.645 706.098 228.421 691.384 228.421ZM666.381 205.715 674.955 205.715C676.233 205.715 677.428 205.837 678.54 206.083 679.652 206.328 680.619 206.725 681.441 207.273 682.263 207.821 682.91 208.539 683.383 209.426 683.856 210.313 684.092 211.404 684.092 212.699 684.092 214.025 683.839 215.144 683.335 216.058 682.83 216.971 682.147 217.704 681.288 218.258 680.428 218.811 679.437 219.216 678.315 219.471 677.192 219.727 676.029 219.855 674.826 219.855L672.022 219.855 672.022 228.421 666.381 228.421ZM625.298 205.715 632.131 205.715 637.111 214.124 642.091 205.715 648.698 205.715 639.722 218.806 639.722 228.421 634.081 228.421 634.081 218.806ZM592.372 205.715 600.381 205.715 605.699 220.278 605.828 220.278 610.904 205.715 619.059 205.715 619.059 228.421 613.547 228.421 613.692 212.354 613.579 212.354 607.52 228.421 603.556 228.421 597.641 212.354 597.545 212.354 597.674 228.421 592.372 228.421ZM807.682 205.135C808.992 205.135 810.335 205.37 811.71 205.84 813.086 206.31 814.294 207.004 815.336 207.923L811.726 211.618C811.243 211.023 810.612 210.548 809.833 210.193 809.054 209.838 808.299 209.661 807.569 209.661 807.203 209.661 806.827 209.692 806.441 209.755 806.054 209.818 805.707 209.94 805.401 210.123 805.095 210.306 804.837 210.54 804.628 210.827 804.418 211.115 804.313 211.483 804.313 211.932 804.313 212.318 804.394 212.639 804.555 212.895 804.716 213.15 804.958 213.375 805.28 213.568 805.603 213.761 805.984 213.939 806.425 214.1 806.865 214.262 807.359 214.427 807.907 214.594 808.702 214.855 809.527 215.139 810.381 215.447 811.235 215.755 812.014 216.167 812.718 216.684 813.421 217.201 814.004 217.838 814.466 218.594 814.928 219.351 815.159 220.299 815.159 221.437 815.159 222.731 814.912 223.856 814.418 224.811 813.924 225.766 813.26 226.555 812.428 227.176 811.595 227.797 810.639 228.256 809.559 228.554 808.479 228.851 807.365 229 806.215 229 804.55 229 802.936 228.716 801.372 228.147 799.809 227.578 798.512 226.771 797.481 225.727L801.171 222.063C801.74 222.752 802.492 223.326 803.427 223.785 804.362 224.245 805.291 224.474 806.215 224.474 806.634 224.474 807.042 224.433 807.44 224.349 807.837 224.266 808.184 224.127 808.479 223.934 808.775 223.741 809.011 223.483 809.188 223.159 809.366 222.835 809.454 222.449 809.454 222 809.454 221.572 809.344 221.21 809.124 220.912 808.904 220.615 808.589 220.343 808.181 220.098 807.773 219.852 807.268 219.628 806.666 219.424 806.065 219.221 805.377 219.004 804.604 218.775 803.851 218.534 803.118 218.255 802.404 217.937 801.689 217.618 801.053 217.206 800.494 216.7 799.935 216.193 799.484 215.583 799.14 214.868 798.797 214.152 798.625 213.283 798.625 212.26 798.625 210.997 798.891 209.917 799.422 209.019 799.954 208.121 800.647 207.383 801.501 206.803 802.355 206.224 803.322 205.801 804.402 205.535 805.482 205.268 806.575 205.135 807.682 205.135ZM414 203 530.175 203 530.175 216.994 414 216.994Z" fill="#333F50" fill-rule="evenodd"/></g></svg>