<svg width="419" height="28" xmlns="http://www.w3.org/2000/svg" xmlns:xlink="http://www.w3.org/1999/xlink" overflow="hidden"><defs><clipPath id="clip0"><rect x="387" y="624" width="419" height="28"/></clipPath></defs><g clip-path="url(#clip0)" transform="translate(-387 -624)"><path d="M669.352 634.654 666.478 642.493 672.178 642.493ZM600.372 632.907C599.414 632.907 598.542 633.085 597.756 633.442 596.97 633.799 596.288 634.284 595.71 634.898 595.132 635.512 594.69 636.249 594.383 637.109 594.076 637.97 593.922 638.893 593.922 639.88 593.922 640.908 594.081 641.858 594.398 642.729 594.716 643.6 595.158 644.347 595.726 644.972 596.293 645.596 596.97 646.084 597.756 646.436 598.542 646.787 599.414 646.963 600.372 646.963 601.34 646.963 602.217 646.787 603.003 646.436 603.789 646.084 604.471 645.596 605.049 644.972 605.627 644.347 606.075 643.6 606.392 642.729 606.71 641.858 606.868 640.908 606.868 639.88 606.868 638.893 606.71 637.97 606.392 637.109 606.075 636.249 605.632 635.512 605.065 634.898 604.497 634.284 603.815 633.799 603.019 633.442 602.222 633.085 601.34 632.907 600.372 632.907ZM784.026 628.562 789.399 628.562 789.399 637.849 789.492 637.849 797.582 628.562 804.422 628.562 794.661 639.077 805 651.386 797.863 651.386 789.461 640.871 789.399 640.871 789.399 651.386 784.026 651.386ZM755.042 628.562 761.273 628.562 770.346 643.453 770.455 643.453 770.315 628.562 775.625 628.562 775.625 651.386 769.425 651.386 760.304 636.464 760.211 636.464 760.336 651.386 755.042 651.386ZM741.049 628.562 746.546 628.562 746.546 651.386 741.049 651.386ZM720.06 628.562 725.557 628.562 725.557 646.585 734.318 646.585 734.318 651.386 720.06 651.386ZM687.077 628.562 692.574 628.562 692.574 646.585 701.335 646.585 701.335 651.386 687.077 651.386ZM666.806 628.562 672.116 628.562 681.517 651.386 675.442 651.386 673.677 646.9 664.916 646.9 663.245 651.386 657.295 651.386ZM646.098 628.562 651.595 628.562 651.595 651.386 646.098 651.386ZM574.167 627.98C575.437 627.98 576.738 628.216 578.071 628.688 579.403 629.161 580.575 629.858 581.585 630.782L578.086 634.497C577.618 633.898 577.006 633.421 576.252 633.064 575.497 632.707 574.765 632.529 574.057 632.529 573.703 632.529 573.339 632.561 572.964 632.623 572.589 632.686 572.254 632.81 571.957 632.993 571.66 633.177 571.41 633.413 571.207 633.702 571.004 633.99 570.903 634.36 570.903 634.811 570.903 635.2 570.981 635.522 571.137 635.779 571.293 636.036 571.527 636.262 571.84 636.456 572.152 636.65 572.522 636.829 572.949 636.991 573.375 637.154 573.854 637.319 574.385 637.487 575.156 637.75 575.955 638.036 576.782 638.345 577.61 638.655 578.365 639.069 579.047 639.589 579.729 640.108 580.294 640.748 580.741 641.509 581.189 642.27 581.413 643.222 581.413 644.366 581.413 645.667 581.173 646.798 580.694 647.758 580.216 648.718 579.573 649.51 578.766 650.135 577.959 650.759 577.032 651.221 575.986 651.52 574.94 651.819 573.859 651.969 572.745 651.969 571.132 651.969 569.567 651.682 568.053 651.111 566.538 650.539 565.281 649.728 564.281 648.679L567.857 644.995C568.409 645.688 569.138 646.265 570.044 646.727 570.95 647.189 571.85 647.42 572.745 647.42 573.151 647.42 573.547 647.378 573.932 647.294 574.318 647.21 574.653 647.071 574.94 646.876 575.226 646.682 575.455 646.423 575.627 646.097 575.799 645.772 575.884 645.384 575.884 644.933 575.884 644.502 575.778 644.138 575.564 643.839 575.351 643.539 575.046 643.267 574.651 643.02 574.255 642.773 573.766 642.548 573.183 642.343 572.6 642.139 571.933 641.921 571.184 641.69 570.455 641.449 569.744 641.168 569.052 640.848 568.36 640.528 567.743 640.113 567.202 639.604 566.66 639.095 566.223 638.482 565.89 637.763 565.556 637.044 565.39 636.17 565.39 635.142 565.39 633.872 565.648 632.786 566.163 631.884 566.678 630.981 567.35 630.239 568.178 629.656 569.005 629.074 569.942 628.649 570.989 628.381 572.035 628.114 573.094 627.98 574.167 627.98ZM631.324 627.949C632.928 627.949 634.503 628.235 636.049 628.806 637.595 629.378 638.847 630.21 639.804 631.301L636.103 635.048C635.583 634.334 634.909 633.807 634.081 633.466 633.253 633.125 632.402 632.954 631.527 632.954 630.559 632.954 629.677 633.13 628.88 633.481 628.084 633.833 627.397 634.321 626.819 634.945 626.241 635.57 625.793 636.307 625.476 637.157 625.158 638.007 625 638.935 625 639.943 625 640.971 625.158 641.916 625.476 642.776 625.793 643.637 626.236 644.374 626.803 644.988 627.371 645.602 628.047 646.079 628.834 646.42 629.62 646.761 630.481 646.932 631.418 646.932 632.511 646.932 633.464 646.716 634.276 646.286 635.088 645.856 635.739 645.3 636.228 644.618L640.023 648.222C639.024 649.387 637.79 650.308 636.322 650.985 634.854 651.662 633.157 652 631.231 652 629.482 652 627.868 651.709 626.389 651.126 624.911 650.544 623.628 649.723 622.54 648.663 621.452 647.603 620.598 646.331 619.979 644.846 619.359 643.361 619.05 641.727 619.05 639.943 619.05 638.117 619.365 636.461 619.994 634.977 620.624 633.492 621.494 632.23 622.602 631.191 623.711 630.152 625.01 629.352 626.499 628.791 627.988 628.229 629.596 627.949 631.324 627.949ZM600.372 627.949C602.142 627.949 603.784 628.229 605.299 628.791 606.814 629.352 608.12 630.147 609.219 631.175 610.317 632.204 611.176 633.455 611.795 634.929 612.415 636.404 612.725 638.054 612.725 639.88 612.725 641.685 612.415 643.335 611.795 644.83 611.176 646.326 610.317 647.603 609.219 648.663 608.12 649.723 606.814 650.544 605.299 651.126 603.784 651.709 602.142 652 600.372 652 598.602 652 596.967 651.709 595.468 651.126 593.969 650.544 592.67 649.723 591.572 648.663 590.473 647.603 589.614 646.326 588.995 644.83 588.375 643.335 588.066 641.685 588.066 639.88 588.066 638.054 588.375 636.404 588.995 634.929 589.614 633.455 590.473 632.204 591.572 631.175 592.67 630.147 593.969 629.352 595.468 628.791 596.967 628.229 598.602 627.949 600.372 627.949ZM387 625 502.79 625 502.79 640.312 387 640.312Z" fill="#333F50" fill-rule="evenodd"/></g></svg>